<svg width="42" height="50" viewBox="0 0 42 50" fill="none" xmlns="http://www.w3.org/2000/svg">
<path fill-rule="evenodd" clip-rule="evenodd" d="M6.0181 5.96845L6.0181 5.96844C5.97819 5.94632 5.93784 5.92394 5.89361 5.89445H5.90194C5.90468 5.8899 5.90801 5.88504 5.91155 5.87989L5.91156 5.87987C5.9188 5.86932 5.9269 5.85751 5.9325 5.84445C5.94361 5.84029 5.95541 5.83682 5.96722 5.83334L5.96724 5.83334C5.97904 5.82987 5.99084 5.8264 6.00194 5.82223C6.06724 5.86887 6.08993 5.91802 6.11379 5.96967C6.12545 5.99492 6.13739 6.02078 6.15472 6.04723C8.61861 7.59445 9.99639 6.7639 10.9603 4.60557C11.0936 4.29446 11.2214 3.95834 11.3464 3.60001C12.4848 0.256237 15.1632 0.215536 17.7536 0.176172C18.5826 0.163575 19.4026 0.151114 20.1603 0.0305659C21.9881 -0.255545 21.4047 1.44723 20.6131 2.26668C20.3517 2.54064 20.0446 2.7713 19.7265 3.01018C18.9256 3.61175 18.0551 4.26549 17.6714 5.79445C18.4101 5.79445 19.1173 5.79908 19.8028 5.80356C21.3083 5.8134 22.7093 5.82256 24.1103 5.78057C26.7297 5.70279 27.1742 6.65557 25.7297 8.77501C25.4133 9.24218 25.1574 9.75279 24.9021 10.2623L24.9021 10.2623C24.5835 10.898 24.2658 11.532 23.8325 12.0778C22.3186 13.9722 22.3519 15.2667 24.8353 16.15C25.4603 16.3722 26.2658 16.9278 26.4242 17.4917C27.1779 20.1628 28.9826 22.1701 30.7821 24.1715C32.7757 26.3889 34.7629 28.5991 35.3075 31.6972C35.3328 31.8398 35.3501 31.9718 35.366 32.0927C35.4527 32.754 35.4958 33.0833 36.5714 32.9917C38.4047 32.8195 40.5742 32.7972 41.0853 35.1361C41.5769 37.3667 39.9853 38.7861 38.2825 39.9639C38.0506 40.1224 37.8738 40.3548 37.6763 40.6144L37.6763 40.6145L37.6763 40.6146C37.5899 40.728 37.4997 40.8467 37.3992 40.9667C37.5562 41.652 38.1502 41.6702 38.7062 41.6872C39.2612 41.7042 39.7783 41.72 39.7853 42.3972C39.7964 43.525 38.5881 44.05 37.7519 44.3083C33.4881 45.6333 28.9964 46.0833 24.6242 45.9945C22.2903 45.9429 20.2474 46.6889 18.2155 47.4308C16.7408 47.9692 15.272 48.5055 13.7019 48.7333C13.472 48.7677 13.2463 48.819 13.0161 48.8714C12.184 49.0609 11.2942 49.2634 9.94083 48.7195C11.5457 48.1366 12.606 46.9549 13.674 45.7646C15.2679 43.9882 16.879 42.1925 20.3436 42.3389C19.7371 42.0869 19.25 41.8814 18.8408 41.7087L18.8379 41.7075L18.8377 41.7074L18.8376 41.7074L18.8376 41.7074C18.0399 41.3708 17.5389 41.1594 17.0269 40.9722C14.6964 40.1306 14.3853 38.4945 16.1242 36.6C17.1047 35.5361 17.7825 34.3945 15.5603 33.9333C14.3387 33.6816 14.6302 33.1589 14.9534 32.5794C15.1866 32.1613 15.4362 31.7136 15.1464 31.3167C14.7742 30.8056 15.9964 30.6611 16.7019 30.75C18.7908 31.0195 21.7436 31.3806 20.9325 28.3278C20.8666 28.0811 20.8042 27.8031 20.7376 27.5068L20.7376 27.5065L20.7375 27.5064C20.2765 25.454 19.6174 22.5197 16.2436 22.9639C12.5881 23.4445 11.4408 22.5389 13.7269 19.2222C13.2619 19.0142 12.6186 19.2545 12.0019 19.4849C10.8318 19.922 9.75771 20.3233 10.1797 17.5583C10.2047 17.3833 9.86028 16.9639 9.79083 16.9833C9.52507 17.0675 9.2535 17.3309 8.98355 17.5927L8.98354 17.5927C8.39853 18.1601 7.82112 18.7201 7.32694 17.4333C6.97433 16.516 7.57106 16.2735 8.2715 15.9888C8.98366 15.6993 9.80302 15.3662 9.84083 14.2361C9.7857 14.0572 9.37446 14.0532 8.93178 14.0489C8.19243 14.0417 7.36536 14.0336 7.96305 13.2083C9.95262 10.4633 8.43046 9.30962 6.72741 8.0189L6.72736 8.01886L6.72719 8.01873C6.55189 7.88587 6.37467 7.75155 6.19916 7.6139C5.96896 7.43464 6.05279 7.16439 6.14242 6.87539C6.18474 6.73894 6.22836 6.59832 6.24083 6.46112C6.24083 6.45696 6.23944 6.4514 6.23805 6.44585L6.23805 6.44584C6.23666 6.44029 6.23528 6.43473 6.23528 6.43057C6.24361 6.30001 6.22972 6.16668 6.14916 6.04723C6.10317 6.01561 6.0609 5.99217 6.01811 5.96845L6.0181 5.96845ZM1.47694 26.1861C0.915831 26.0945 0.276942 25.5056 0.338053 24.6583C0.460275 23.1028 5.20194 19.9333 7.3075 20.0583C9.24663 20.1651 9.87197 21.4829 10.4598 22.7216C10.698 23.2236 10.93 23.7127 11.2408 24.1028C11.1492 25.9361 10.0408 26.9722 8.84916 26.9778C6.50916 27.0069 4.1515 26.6223 1.82186 26.2423L1.47694 26.1861ZM8.19083 0.877788C5.56583 1.57779 4.05194 2.97223 4.23805 5.79168C2.47968 5.96463 2.98974 6.67977 3.45984 7.33888C3.53335 7.44194 3.60588 7.54364 3.66861 7.64168C3.80432 7.33292 4.04054 7.04282 4.28424 6.74352L4.28424 6.74352C4.43957 6.55274 4.59795 6.35824 4.73528 6.15279C4.88942 6.1129 5.04399 6.07218 5.19866 6.03144L5.19885 6.03138C5.44266 5.96715 5.68671 5.90285 5.92972 5.84168C6.1665 5.31966 6.57358 4.87828 6.98648 4.43059C7.82815 3.51801 8.69399 2.57922 8.19083 0.877788ZM3.57416 8.42501C3.99639 8.27779 3.8825 7.98334 3.66583 7.64168C3.5575 7.88057 3.49361 8.13057 3.57416 8.42501Z" fill="#0E8784"/>
</svg>
